<!--?xml version="1.0" encoding="utf-8"?-->
<!-- Svg Vector Icons : http://www.onlinewebfonts.com/icon -->

<svg version="1.1" xmlns="http://www.w3.org/2000/svg" xmlns:xlink="http://www.w3.org/1999/xlink" x="0px" y="0px" viewBox="0 0 256 256" enable-background="new 0 0 256 256" xml:space="preserve">
<metadata> Svg Vector Icons : http://www.onlinewebfonts.com/icon </metadata>
<g><g><g><path fill="#c8c4c4" data-title="Layer 0" xs="0" d="M122.7,10.6c-5.5,1.6-10.1,5.4-12.6,10.8c-1.3,2.8-1.4,3.4-1.4,8.1c0,4.8,0.1,5.3,1.5,8.2c2,4.3,5,7.4,9.3,9.5c3.4,1.7,3.6,1.7,8.5,1.7c4.8,0,5.3-0.1,8.1-1.4c15.2-7.3,15.3-28.4,0.1-35.6c-2.8-1.3-4-1.6-7.1-1.8C126.6,9.9,124.4,10.1,122.7,10.6z"/><path fill="#c8c4c4" data-title="Layer 1" xs="1" d="M94.3,57.4c-2.8,0.6-6.1,2.4-8.1,4.5c-3.5,3.6-3.6,3.9-10.7,41.4c-7.2,37.9-7.1,36.7-4.8,39.7c1.2,1.6,4.2,3,6.4,3c2.1,0,5.4-1.7,6.6-3.3c0.7-1,2.3-8,6.1-27.4c4.5-22.6,5.3-26.3,6.2-27c1.2-1,1.6-1,2.7,0.1c0.9,0.9,0.9,1.5,0.9,74.3c0,54.9,0.1,73.9,0.6,75.2c0.7,2.3,3.6,5.6,6.1,7c2.8,1.4,8,1.4,10.9,0c2.8-1.5,4-2.7,5.4-5.4l1.2-2.3l0.1-43.4c0.1-23.8,0.2-43.8,0.4-44.4c0.3-1.1,2.4-2.4,3.9-2.4c0.5,0,1.5,0.5,2.2,1.1l1.3,1.1l0.2,44.2l0.2,44.2l1,1.9c2,3.8,6.7,6.6,11,6.6s8.9-2.8,11-6.6l1-1.9l0.1-74.3l0.1-74.4l1.1-0.7c1.5-0.9,2.8-0.3,3.5,1.8c0.2,0.8,2.5,12.2,5.1,25.3c2.5,13.1,4.9,24.5,5.2,25.4c0.6,2,1.9,3.6,4.2,4.7c2.2,1.2,4.7,1.1,7.2-0.1c2.5-1.2,3.9-3.2,4.2-5.9c0.3-3-12.5-69.5-14-72.7c-1.6-3.5-4-6-7.5-7.7l-3.1-1.5l-33-0.1C111.1,57,95.3,57.2,94.3,57.4z"/></g></g></g>
</svg>